<svg width="110" height="123" viewBox="0 0 110 123" fill="none" xmlns="http://www.w3.org/2000/svg">
<g clip-path="url(#clip0_3_14)">
<path fill-rule="evenodd" clip-rule="evenodd" d="M101.41 37.05C99.46 39.19 97.19 41.1 94.64 42.65C94.33 42.88 93.9 42.91 93.55 42.68C89.79 40.29 86.62 37.41 84.14 34.28C80.71 29.98 78.55 25.21 77.81 20.62C77.06 15.96 77.76 11.48 80.08 7.82999C81 6.39999 82.17 5.07999 83.59 3.94999C86.86 1.34999 90.59 -0.0300093 94.32 -9.32891e-06C97.9 0.0299907 101.44 1.35999 104.5 4.14999C105.58 5.12999 106.48 6.23999 107.22 7.45999C109.71 11.57 110.25 16.8 109.15 22.11C108.07 27.36 105.39 32.69 101.41 37.05ZM23.88 92.06C21.93 94.2 19.66 96.11 17.11 97.66C16.8 97.89 16.37 97.92 16.02 97.69C12.26 95.29 9.09003 92.42 6.61003 89.29C3.19003 85 1.03003 80.23 0.290026 75.63C-0.459974 70.97 0.240026 66.49 2.56003 62.85C3.47003 61.41 4.64003 60.1 6.07003 58.97C9.34003 56.37 13.07 54.99 16.79 55.02C20.37 55.05 23.91 56.38 26.97 59.17C28.05 60.15 28.95 61.26 29.69 62.48C32.18 66.59 32.72 71.82 31.62 77.13C30.54 82.37 27.86 87.7 23.88 92.06ZM17.07 103.04C21.58 103.04 25.39 106.06 26.59 110.18H86.56C89.52 110.18 92.22 108.97 94.18 107.01C96.14 105.05 97.35 102.36 97.35 99.39C97.35 96.43 96.14 93.73 94.18 91.77C92.22 89.81 89.53 88.6 86.56 88.6H65.58C60.87 88.6 56.59 86.68 53.49 83.58C50.39 80.48 48.47 76.2 48.47 71.49C48.47 66.78 50.39 62.5 53.49 59.4C56.59 56.3 60.87 54.38 65.58 54.38H84.55C85.85 50.42 89.58 47.56 93.97 47.56C99.45 47.56 103.89 52 103.89 57.48C103.89 62.96 99.45 67.4 93.97 67.4C89.62 67.4 85.93 64.6 84.59 60.71H65.58C62.62 60.71 59.92 61.92 57.96 63.88C56 65.84 54.79 68.53 54.79 71.5C54.79 74.46 56 77.16 57.96 79.12C59.9 81.06 62.57 82.27 65.51 82.29H86.57C91.28 82.29 95.56 84.21 98.66 87.31C101.76 90.41 103.68 94.69 103.68 99.4C103.68 104.11 101.76 108.39 98.66 111.49C95.56 114.59 91.28 116.51 86.57 116.51H26.34C24.91 120.24 21.3 122.88 17.07 122.88C11.59 122.88 7.15003 118.44 7.15003 112.96C7.15003 107.48 11.59 103.04 17.07 103.04ZM16.08 63.3C20.5 63.3 24.08 66.88 24.08 71.3C24.08 75.72 20.5 79.3 16.08 79.3C11.66 79.3 8.08003 75.72 8.08003 71.3C8.08003 66.88 11.66 63.3 16.08 63.3ZM93.61 8.27999C98.03 8.27999 101.61 11.86 101.61 16.28C101.61 20.7 98.03 24.28 93.61 24.28C89.19 24.28 85.61 20.7 85.61 16.28C85.61 11.86 89.19 8.27999 93.61 8.27999Z" fill="#CCCAD7"/>
</g>
<defs>
<clipPath id="clip0_3_14">
<rect width="109.69" height="122.88" fill="white"/>
</clipPath>
</defs>
</svg>
