<svg width="110" height="123" viewBox="0 0 110 123" fill="none" xmlns="http://www.w3.org/2000/svg">
<path fill-rule="evenodd" clip-rule="evenodd" d="M101.408 37.0505C99.4581 39.1905 97.1881 41.1005 94.6381 42.6505C94.3281 42.8805 93.8981 42.9105 93.5481 42.6805C89.7881 40.2905 86.6181 37.4105 84.1381 34.2805C80.7081 29.9805 78.5481 25.2105 77.8081 20.6205C77.0581 15.9605 77.7581 11.4805 80.0781 7.83048C80.9981 6.40048 82.1681 5.08048 83.5881 3.95048C86.8581 1.35048 90.5881 -0.029521 94.3181 0.000478952C97.8981 0.030479 101.438 1.36048 104.498 4.15048C105.578 5.13048 106.478 6.24048 107.218 7.46048C109.708 11.5705 110.248 16.8005 109.148 22.1105C108.068 27.3605 105.388 32.6905 101.408 37.0505ZM23.8781 92.0605C21.9281 94.2005 19.6581 96.1105 17.1081 97.6605C16.7981 97.8905 16.3681 97.9205 16.0181 97.6905C12.2581 95.2905 9.08807 92.4205 6.60807 89.2905C3.18807 85.0005 1.02807 80.2305 0.288073 75.6305C-0.461927 70.9705 0.238073 66.4905 2.55807 62.8505C3.46807 61.4105 4.63807 60.1005 6.06807 58.9705C9.33807 56.3705 13.0681 54.9905 16.7881 55.0205C20.3681 55.0505 23.9081 56.3805 26.9681 59.1705C28.0481 60.1505 28.9481 61.2605 29.6881 62.4805C32.1781 66.5905 32.7181 71.8205 31.6181 77.1305C30.5381 82.3705 27.8581 87.7005 23.8781 92.0605ZM17.0681 103.04C21.5781 103.04 25.3881 106.06 26.5881 110.18H86.5581C89.5181 110.18 92.2181 108.97 94.1781 107.01C96.1381 105.05 97.3481 102.36 97.3481 99.3905C97.3481 96.4305 96.1381 93.7305 94.1781 91.7705C92.2181 89.8105 89.5281 88.6005 86.5581 88.6005H65.5781C60.8681 88.6005 56.5881 86.6805 53.4881 83.5805C50.3881 80.4805 48.4681 76.2005 48.4681 71.4905C48.4681 66.7805 50.3881 62.5005 53.4881 59.4005C56.5881 56.3005 60.8681 54.3805 65.5781 54.3805H84.5481C85.8481 50.4205 89.5781 47.5605 93.9681 47.5605C99.4481 47.5605 103.888 52.0005 103.888 57.4805C103.888 62.9605 99.4481 67.4005 93.9681 67.4005C89.6181 67.4005 85.9281 64.6005 84.5881 60.7105H65.5781C62.6181 60.7105 59.9181 61.9205 57.9581 63.8805C55.9981 65.8405 54.7881 68.5305 54.7881 71.5005C54.7881 74.4605 55.9981 77.1605 57.9581 79.1205C59.8981 81.0605 62.5681 82.2705 65.5081 82.2905H86.5681C91.2781 82.2905 95.5581 84.2105 98.6581 87.3105C101.758 90.4105 103.678 94.6905 103.678 99.4005C103.678 104.11 101.758 108.39 98.6581 111.49C95.5581 114.59 91.2781 116.51 86.5681 116.51H26.3381C24.9081 120.24 21.2981 122.88 17.0681 122.88C11.5881 122.88 7.14807 118.44 7.14807 112.96C7.14807 107.48 11.5881 103.04 17.0681 103.04ZM16.0781 63.3005C20.4981 63.3005 24.0781 66.8805 24.0781 71.3005C24.0781 75.7205 20.4981 79.3005 16.0781 79.3005C11.6581 79.3005 8.07807 75.7205 8.07807 71.3005C8.07807 66.8805 11.6581 63.3005 16.0781 63.3005ZM93.6081 8.28048C98.0281 8.28048 101.608 11.8605 101.608 16.2805C101.608 20.7005 98.0281 24.2805 93.6081 24.2805C89.1881 24.2805 85.6081 20.7005 85.6081 16.2805C85.6081 11.8605 89.1881 8.28048 93.6081 8.28048Z" fill="#4E5E7E"/>
</svg>
